<?xml version="1.0" encoding="UTF-8" standalone="no"?>
<svg
   id="Layer_1"
   data-name="Layer 1"
   viewBox="0 0 348.1 196.96"
   version="1.1"
   sodipodi:docname="logo.svg"
   inkscape:version="1.2 (dc2aedaf03, 2022-05-15)"
   xmlns:inkscape="http://www.inkscape.org/namespaces/inkscape"
   xmlns:sodipodi="http://sodipodi.sourceforge.net/DTD/sodipodi-0.dtd"
   xmlns="http://www.w3.org/2000/svg"
   xmlns:svg="http://www.w3.org/2000/svg">
  <sodipodi:namedview
     id="namedview31"
     pagecolor="#ffffff"
     bordercolor="#000000"
     borderopacity="0.25"
     inkscape:showpageshadow="2"
     inkscape:pageopacity="0.0"
     inkscape:pagecheckerboard="0"
     inkscape:deskcolor="#d1d1d1"
     showgrid="false"
     inkscape:zoom="4.7928512"
     inkscape:cx="153.77068"
     inkscape:cy="142.39958"
     inkscape:window-width="4300"
     inkscape:window-height="1711"
     inkscape:window-x="-9"
     inkscape:window-y="-9"
     inkscape:window-maximized="1"
     inkscape:current-layer="Layer_1" />
  <defs
     id="defs4">
    <style
       id="style2">.cls-1{fill:#99425b;}.cls-2{fill:#fff;}.cls-3{fill:#e9551d;}.cls-4{fill:#ef7c10;}.cls-5{fill:#f6a307;}.cls-6{fill:#b91d1b;}.cls-7{fill:#020203;}</style>
  </defs>
  <path
     class="cls-3"
     d="M134.49,28a67,67,0,0,1,11.84,37,62.44,62.44,0,0,0-16.46-18.52,72.41,72.41,0,0,1,8.56,36.33A32.55,32.55,0,0,0,124.62,63c4.3,10.75,8.43,23.54,2.07,33.22a93.11,93.11,0,0,0-6-15,81.23,81.23,0,0,1-10.92,46,59.53,59.53,0,0,0-8.2-29.47,126.3,126.3,0,0,1-5.71,38.43,101.78,101.78,0,0,0-13.14-33.15,133.18,133.18,0,0,1-9.84,28.19,125.09,125.09,0,0,0-9.87-28c-5.64,9.15-4.66,20.73-3.44,31.38A90.38,90.38,0,0,1,47.93,82.83,34.75,34.75,0,0,0,39.86,101c-7.64-9.9-6.49-23.7-5-36.13A61.76,61.76,0,0,0,19.08,84.77C17.73,68,25.93,52.14,33.9,37.29A60.08,60.08,0,0,1,16.35,53.42,270.55,270.55,0,0,0,26.85,22a23.19,23.19,0,0,1-7.51,10.82,7.66,7.66,0,0,1-.53,2.07C14.22,45.06,2.68,58.51,2.06,59.69c0,0,7.28-.82,12.33-5.51C6.58,69.1,19.44,96.9,25.6,103.92c-1.18-3.18-.92-7.67,1.84-9.67-1.35,29.05,22.88,46,22.88,46S47,133.69,49.8,130c1.57,8,35.9,19.14,35.9,35.14,0-16.23,36.92-28,40.76-50.29.62,0,1.57,6.59-.33,9,17.58-10.33,29.18-43.12,27.9-52.6,2.76,3,4.37,9.78,4.37,9.78s10.59-24.5-.33-45.12C153.94,28,150,24.5,146.56,22c1.11,5,3.64,9.58,6.13,14.07A26.36,26.36,0,0,0,134.49,28Z"
     transform="translate(-2.06 -3.03)"
     id="path10" />
  <path
     class="cls-4"
     d="M80.62,25C42.78,24.08,28.26,12.63,28.26,3c0,17.83-8.23,24-8.92,29.83A23.19,23.19,0,0,0,26.85,22a270.55,270.55,0,0,1-10.5,31.38A60.08,60.08,0,0,0,33.9,37.29C25.93,52.14,17.73,68,19.08,84.77A61.35,61.35,0,0,1,34.85,64.9c-1.48,12.43-2.59,26.26,5,36.23A34.7,34.7,0,0,1,48,82.93a90.45,90.45,0,0,0,11.61,51.84c-1.18-10.65-2.2-22.23,3.44-31.38a124.08,124.08,0,0,1,9.87,28,133.07,133.07,0,0,0,9.84-28.2,101.58,101.58,0,0,1,13.15,33.15,126.2,126.2,0,0,0,5.7-38.43,59.88,59.88,0,0,1,8.2,29.48,81.17,81.17,0,0,0,10.92-46,94.68,94.68,0,0,1,6,15c6.36-9.7,2.23-22.49-2.06-33.21A32.7,32.7,0,0,1,138.46,83a72.41,72.41,0,0,0-8.56-36.33,62.44,62.44,0,0,1,16.46,18.52,67.06,67.06,0,0,0-11.83-37,26.13,26.13,0,0,1,18.19,8.07c-2.49-4.49-5-9.08-6.13-14.07-5.54-3.93-9.93-5.44-12.43-19C134.13,12.63,118.49,25.91,80.62,25Z"
     transform="translate(-2.06 -3.03)"
     id="path12" />
  <path
     class="cls-5"
     d="M60,31.22c-6.69,5.81-7.93,18.3-6.65,27A21.76,21.76,0,0,1,59.6,47.62c-1.67,5,.17,10.46,2.17,15.38,2.39,5.9,5.08,11.74,9,16.72a35.1,35.1,0,0,1,1.37-20.53c0,2.46,1.32,4.73,2.5,6.89a119.6,119.6,0,0,1,11.8,31.58c5.34-10.63,3.61-23.38,7-34.76,4.85,4.85,6.06,12.13,6.82,18.92a49.92,49.92,0,0,0,4.59-28.53A29,29,0,0,1,112.75,66a46.24,46.24,0,0,0-1-23.38c-1.48-4.75-4.07-9.6-8.63-11.74a18.79,18.79,0,0,0-5.54-1.44c-3.28-.46-6.59-.72-9.9-1a64.1,64.1,0,0,0-12.23-.1,21.75,21.75,0,0,0-11.25,4.36"
     transform="translate(-2.06 -3.03)"
     id="path14" />
  <path
     class="cls-6"
     d="M61,30.11C59.11,47,95.34,57.85,104.46,31.55,107.28,23.42,61.44,25.78,61,30.11Z"
     transform="translate(-2.06 -3.03)"
     id="path16" />
  <path
     class="cls-2"
     d="M63.8,36.34c0,2.66,37.25,1.77,37.18-.66,0-.52.26-6.13.3-6.75-10.46.56-28.36.29-37.51,3.08l0,4.33Z"
     transform="translate(-2.06 -3.03)"
     id="path18" />
  <path
     class="cls-5"
     d="M82.36,23.36c6.59,6.85,41.41,8.06,50.3-2.53-6.07,5.08-14.14,4.56-16.89,3.54a7.67,7.67,0,0,0,5.64-5.9c-15.18,15.31-19.64-10.95-38.85,3.08C66.69,10,56.26,26.37,44.16,20.7l5.15,3.67s-7.58,5-16.89-3.54a21.39,21.39,0,0,0,4.23,4.69C49.63,30,76.19,28.27,82.36,23.36Z"
     transform="translate(-2.06 -3.03)"
     id="path20" />
  <path
     class="cls-3"
     d="M82.56,29.42c11.67,6.49,40.42,6.2,50.1-8.56h0c-8.89,10.56-43.71,9.35-50.3,2.5C76.19,28.27,49.63,30,36.65,25.52,48.75,35.59,72.26,35.16,82.56,29.42Z"
     transform="translate(-2.06 -3.03)"
     id="path22" />
  <path
     class="cls-3"
     d="M86.52,159.66c-6.75,3.77-15.9,24.2,1.31,40.33-1.31-15.15,14.3-23.81-1.31-40.33"
     transform="translate(-2.06 -3.03)"
     id="path24" />
  <path
     class="cls-4"
     d="M86.13,159.66c-3.31,3.77-6.72,24.2,1.74,40.33-.66-15.15,5.9-23.81-1.74-40.33"
     transform="translate(-2.06 -3.03)"
     id="path26" />
  <path
     class="cls-7"
     d="M66.59,156.41c1.34-2.65,18.72,2.66,18.72,2.66s15.31-6.1,18.1-5.15,1.87,15.71,0,15.71-18.07-8.27-18.07-8.27-15.64,8.5-17.18,8.27S65.8,158,66.59,156.41Z"
     transform="translate(-2.06 -3.03)"
     id="path28" />
  <path
     style="fill:#000000;stroke-width:0.69335"
     d="m 209.15716,165.57614 c -4.85679,-2.42027 -25.27506,-23.13831 -26.65214,-27.04347 -0.80191,-2.27408 -0.97299,-11.9025 -0.97299,-54.760473 0,-49.249316 0.0679,-52.129665 1.28206,-54.427968 1.7659,-3.342551 23.03766,-24.7087017 26.45194,-26.5693072 l 2.7734,-1.5113616 h 52.6946 c 49.92378,0 52.82218,0.0674 55.1213,1.2820575 3.30968,1.7485312 24.73339,23.0545773 26.39596,26.2509773 1.28756,2.475371 1.33805,4.562998 1.33805,55.322269 0,50.760586 -0.0506,52.846846 -1.33812,55.322286 -1.92801,3.70644 -24.07148,25.50307 -27.24031,26.8136 -2.24089,0.92678 -9.35887,1.06609 -54.46517,1.06609 h -51.88737 z m 112.37929,-24.58166 9.0658,-8.99263 0.18789,-46.643473 c 0.13049,-32.44358 -0.0419,-47.198009 -0.56671,-48.465071 -1.06162,-2.562954 -16.6099,-17.751179 -18.69739,-18.264398 -0.94832,-0.233148 -22.70196,-0.335634 -48.3414,-0.22775 l -46.61719,0.196147 -8.30216,8.280796 c -4.56619,4.554437 -8.63357,9.080902 -9.03864,10.058815 -0.50134,1.210346 -0.67651,16.660123 -0.54865,48.390806 l 0.18782,46.612778 9.00353,9.02332 9.00356,9.02329 h 47.79891 47.79886 z M 221.23503,119.08769 c -5.56502,-3.01954 -5.2016,-12.45094 0.58562,-15.19716 3.23156,-1.53346 82.94144,-1.58217 86.6015,-0.053 5.69735,2.38049 6.82853,9.77201 2.15145,14.05823 l -2.48484,2.27718 -42.47787,-0.0278 c -36.22025,-0.0236 -42.75747,-0.1795 -44.37586,-1.0576 z m -1.28278,-40.01642 c -3.37069,-2.27151 -4.21852,-4.284868 -3.87767,-9.20851 0.37486,-5.414942 2.35282,-9.81005 6.32693,-14.058703 9.19633,-9.831621 24.85416,-9.831621 34.05048,0 4.04848,4.328159 5.97717,8.710061 6.39327,14.525133 0.31978,4.469693 0.25942,4.682999 -2.03473,7.186316 -3.03641,3.313271 -7.28904,4.007985 -10.85192,1.772742 -2.3981,-1.504502 -4.29172,-5.005825 -4.29172,-7.93543 0,-0.944327 -0.7469,-2.585287 -1.65977,-3.646575 -1.3268,-1.542524 -2.24573,-1.929631 -4.58038,-1.929631 -2.33463,0 -3.25355,0.387107 -4.58036,1.929631 -0.91288,1.061288 -1.65979,2.702248 -1.65979,3.646575 0,4.801533 -4.21977,9.291267 -8.73768,9.296715 -1.18296,9.68e-4 -3.20646,-0.708797 -4.49666,-1.578263 z m 59.12705,0.176362 c -4.08061,-2.487879 -5.30115,-8.336186 -2.55732,-12.253572 0.56884,-0.812155 6.18624,-4.935488 12.48311,-9.162988 10.27218,-6.896412 11.76339,-7.686371 14.50949,-7.686371 3.72688,0 6.83756,2.309008 8.04677,5.972944 0.66777,2.023305 0.61058,2.988632 -0.32161,5.429529 -1.01901,2.668281 -2.16581,3.662407 -11.33205,9.823468 -5.60907,3.770085 -11.13767,7.38765 -12.28576,8.039008 -2.79982,1.588496 -5.76363,1.532286 -8.54263,-0.161942 z"
     id="path210" />
</svg>
